<svg width="60" height="60" viewBox="0 0 60 60" fill="none" xmlns="http://www.w3.org/2000/svg">
<g filter="url(#filter0_d)">
<path d="M52.8946 5.46972C51.105 5.16449 49.2928 5.00738 47.4768 5.00001C41.2809 4.99498 35.2143 6.75418 30 10.0679C24.7723 6.79768 18.7066 5.08167 12.5232 5.12362C10.7072 5.13099 8.89501 5.2881 7.10538 5.59332C6.51917 5.69339 5.98831 5.99742 5.6084 6.45065C5.22848 6.90387 5.02448 7.47652 5.03313 8.06546V37.7312C5.02778 38.0944 5.10335 38.4543 5.25446 38.7854C5.40557 39.1164 5.6285 39.4104 5.9074 39.6464C6.1863 39.8825 6.5143 40.0547 6.86808 40.151C7.22186 40.2472 7.59271 40.2651 7.95425 40.2033C11.5321 39.5899 15.1976 39.6917 18.7351 40.5026C22.2726 41.3135 25.6104 42.8172 28.5519 44.9251L28.8515 45.0981H29.1262C29.403 45.2124 29.7 45.2712 30 45.2712C30.3 45.2712 30.597 45.2124 30.8738 45.0981H31.1485L31.4481 44.9251C34.3691 42.7701 37.6973 41.2177 41.2355 40.3599C44.7736 39.5021 48.4497 39.3564 52.0457 39.9314C52.4073 39.9932 52.7781 39.9753 53.1319 39.879C53.4857 39.7828 53.8137 39.6105 54.0926 39.3745C54.3715 39.1385 54.5944 38.8445 54.7455 38.5134C54.8966 38.1824 54.9722 37.8225 54.9669 37.4592V7.79353C54.9409 7.23026 54.7212 6.69271 54.3443 6.27004C53.9674 5.84737 53.4559 5.56499 52.8946 5.46972ZM27.5033 38.3245C22.8841 35.9183 17.7426 34.6625 12.5232 34.6657C11.6993 34.6657 10.8754 34.6657 10.0265 34.6657V9.94429C10.858 9.89684 11.6916 9.89684 12.5232 9.94429C17.8496 9.93846 23.0597 11.4861 27.5033 14.3941V38.3245ZM49.9735 34.7646C49.1246 34.7646 48.3007 34.7646 47.4768 34.7646C42.2574 34.7614 37.1158 36.0172 32.4967 38.4234V14.3941C36.9403 11.4861 42.1504 9.93846 47.4768 9.94429C48.3083 9.89684 49.142 9.89684 49.9735 9.94429V34.7646ZM52.8946 45.024C51.105 44.7187 49.2928 44.5616 47.4768 44.5543C41.2809 44.5492 35.2143 46.3084 30 49.6222C24.7857 46.3084 18.7191 44.5492 12.5232 44.5543C10.7072 44.5616 8.89501 44.7187 7.10538 45.024C6.78038 45.075 6.46878 45.1892 6.1885 45.3599C5.90822 45.5307 5.66479 45.7546 5.47221 46.0188C5.27963 46.283 5.1417 46.5823 5.06634 46.8995C4.99099 47.2166 4.9797 47.5454 5.03313 47.8669C5.16 48.5089 5.53868 49.0749 6.08621 49.441C6.63373 49.807 7.30546 49.9433 7.95425 49.8199C11.5321 49.2065 15.1976 49.3083 18.7351 50.1192C22.2726 50.9302 25.6104 52.4338 28.5519 54.5417C28.9748 54.8398 29.4809 55 30 55C30.5191 55 31.0252 54.8398 31.4481 54.5417C34.3896 52.4338 37.7274 50.9302 41.2649 50.1192C44.8024 49.3083 48.4679 49.2065 52.0457 49.8199C52.6945 49.9433 53.3663 49.807 53.9138 49.441C54.4613 49.0749 54.84 48.5089 54.9669 47.8669C55.0203 47.5454 55.009 47.2166 54.9337 46.8995C54.8583 46.5823 54.7204 46.283 54.5278 46.0188C54.3352 45.7546 54.0918 45.5307 53.8115 45.3599C53.5312 45.1892 53.2196 45.075 52.8946 45.024Z" fill="#FFF4B7"/>
</g>
<defs>
<filter id="filter0_d" x="0" y="0" width="60" height="60" filterUnits="userSpaceOnUse" color-interpolation-filters="sRGB">
<feFlood flood-opacity="0" result="BackgroundImageFix"/>
<feColorMatrix in="SourceAlpha" type="matrix" values="0 0 0 0 0 0 0 0 0 0 0 0 0 0 0 0 0 0 127 0"/>
<feOffset/>
<feGaussianBlur stdDeviation="2.5"/>
<feColorMatrix type="matrix" values="0 0 0 0 1 0 0 0 0 0.866667 0 0 0 0 0.0901961 0 0 0 1 0"/>
<feBlend mode="normal" in2="BackgroundImageFix" result="effect1_dropShadow"/>
<feBlend mode="normal" in="SourceGraphic" in2="effect1_dropShadow" result="shape"/>
</filter>
</defs>
</svg>
